<svg width="282" height="107" viewBox="0 0 282 107" fill="none" xmlns="http://www.w3.org/2000/svg">
<path d="M10.4706 12.7971C6.252 12.7971 3.94544 15.3289 3.55089 20.3925C3.55089 20.6381 3.68747 20.7608 3.96061 20.7608H16.2066C16.4494 20.7608 16.5708 20.6381 16.5708 20.3925C16.3887 15.3289 14.3553 12.7971 10.4706 12.7971ZM11.4266 34.985C7.6936 34.985 4.85592 33.9569 2.91355 31.9008C0.971184 29.8139 0 26.699 0 22.5561C0 18.2904 0.92566 15.1602 2.77698 13.1654C4.65865 11.1399 7.22319 10.1272 10.4706 10.1272C16.4494 10.1272 19.621 13.7024 19.9852 20.8529C20.0155 21.5894 19.7575 22.2185 19.2112 22.7402C18.6953 23.2312 18.0731 23.4768 17.3448 23.4768H3.86956C3.62677 23.4768 3.50537 23.6148 3.50537 23.891C3.77851 29.5071 6.52515 32.3151 11.7453 32.3151C13.4752 32.3151 15.2506 31.9928 17.0716 31.3484C17.4054 31.2256 17.7241 31.2716 18.0276 31.4865C18.3311 31.6706 18.4829 31.9468 18.4829 32.3151C18.4829 33.3585 18.0124 34.0029 17.0716 34.2484C15.1292 34.7395 13.2476 34.985 11.4266 34.985Z" fill="#F46918"/>
<path d="M24.4476 34.5246C24.0531 34.5246 23.7496 34.3405 23.5371 33.9722C23.355 33.604 23.3854 33.2511 23.6282 32.9135L30.4113 22.6942C30.5934 22.4794 30.5934 22.2492 30.4113 22.0037L23.8558 12.2447C23.613 11.9072 23.5826 11.5542 23.7647 11.186C23.9772 10.787 24.2959 10.5876 24.7207 10.5876C26.0865 10.5876 27.1032 11.1399 27.7709 12.2447L32.642 20.0703C32.642 20.101 32.6572 20.1164 32.6875 20.1164C32.7482 20.1164 32.7785 20.101 32.7785 20.0703L37.6952 12.1987C38.3629 11.1246 39.334 10.5876 40.6087 10.5876C41.0033 10.5876 41.2916 10.7717 41.4737 11.1399C41.6861 11.5082 41.671 11.8611 41.4282 12.1987L34.8727 22.0037C34.6906 22.2492 34.6906 22.4794 34.8727 22.6942L41.6558 32.8675C41.8682 33.205 41.8682 33.5733 41.6558 33.9722C41.4737 34.3405 41.1854 34.5246 40.7908 34.5246C39.4251 34.5246 38.4084 33.9722 37.7407 32.8675L32.642 24.6276H32.5054L27.3612 32.9135C26.6935 33.9876 25.7223 34.5246 24.4476 34.5246Z" fill="#F46918"/>
<path d="M55.6552 34.985C52.074 34.985 49.3122 33.9416 47.3698 31.8547C45.4578 29.7372 44.5018 26.6377 44.5018 22.5561C44.5018 18.5052 45.4274 15.421 47.2787 13.3035C49.1604 11.186 51.8008 10.1272 55.2 10.1272C56.7781 10.1272 58.4474 10.296 60.2076 10.6336C60.6325 10.7257 60.9815 10.9558 61.2547 11.3241C61.5582 11.6617 61.7099 12.0606 61.7099 12.5209C61.7099 12.8892 61.543 13.1807 61.2092 13.3956C60.9057 13.6104 60.5718 13.6718 60.2076 13.5797C58.6598 13.1807 57.0665 12.9813 55.4276 12.9813C50.5717 12.9813 48.1437 16.1729 48.1437 22.5561C48.1437 25.8705 48.781 28.2949 50.0557 29.8293C51.3304 31.3637 53.2728 32.1309 55.8828 32.1309C57.5824 32.1309 59.1302 31.9008 60.5263 31.4404C60.8601 31.3177 61.1788 31.3637 61.4823 31.5785C61.7858 31.7934 61.9376 32.0849 61.9376 32.4532C61.9376 32.9135 61.801 33.3278 61.5278 33.696C61.2547 34.0643 60.8905 34.3098 60.4353 34.4326C59.0088 34.8008 57.4155 34.985 55.6552 34.985Z" fill="#F46918"/>
<path d="M77.4233 12.7971C73.2047 12.7971 70.8981 15.3289 70.5036 20.3925C70.5036 20.6381 70.6402 20.7608 70.9133 20.7608H83.1593C83.4021 20.7608 83.5235 20.6381 83.5235 20.3925C83.3414 15.3289 81.308 12.7971 77.4233 12.7971ZM78.3793 34.985C74.6463 34.985 71.8086 33.9569 69.8662 31.9008C67.9239 29.8139 66.9527 26.699 66.9527 22.5561C66.9527 18.2904 67.8784 15.1602 69.7297 13.1654C71.6113 11.1399 74.1759 10.1272 77.4233 10.1272C83.4021 10.1272 86.5737 13.7024 86.9379 20.8529C86.9682 21.5894 86.7102 22.2185 86.1639 22.7402C85.648 23.2312 85.0258 23.4768 84.2974 23.4768H70.8223C70.5795 23.4768 70.4581 23.6148 70.4581 23.891C70.7312 29.5071 73.4778 32.3151 78.698 32.3151C80.4279 32.3151 82.2033 31.9928 84.0243 31.3484C84.3581 31.2256 84.6768 31.2716 84.9803 31.4865C85.2838 31.6706 85.4355 31.9468 85.4355 32.3151C85.4355 33.3585 84.9651 34.0029 84.0243 34.2484C82.0819 34.7395 80.2003 34.985 78.3793 34.985Z" fill="#F46918"/>
<path d="M97.3362 33.9722C97.0024 34.3405 96.5775 34.5246 96.0616 34.5246C95.5456 34.5246 95.1055 34.3405 94.7414 33.9722C94.4075 33.604 94.2406 33.1743 94.2406 32.6833V1.84131C94.2406 1.3503 94.4075 0.920659 94.7414 0.552395C95.1055 0.184132 95.5456 0 96.0616 0C96.5775 0 97.0024 0.184132 97.3362 0.552395C97.7004 0.920659 97.8825 1.3503 97.8825 1.84131V32.6833C97.8825 33.1743 97.7004 33.604 97.3362 33.9722Z" fill="#F46918"/>
<path d="M110.54 33.9722C110.206 34.3405 109.781 34.5246 109.265 34.5246C108.749 34.5246 108.309 34.3405 107.945 33.9722C107.611 33.604 107.444 33.1743 107.444 32.6833V1.84131C107.444 1.3503 107.611 0.920659 107.945 0.552395C108.309 0.184132 108.749 0 109.265 0C109.781 0 110.206 0.184132 110.54 0.552395C110.904 0.920659 111.086 1.3503 111.086 1.84131V32.6833C111.086 33.1743 110.904 33.604 110.54 33.9722Z" fill="#F46918"/>
<path d="M128.594 12.7971C124.375 12.7971 122.068 15.3289 121.674 20.3925C121.674 20.6381 121.811 20.7608 122.084 20.7608H134.33C134.572 20.7608 134.694 20.6381 134.694 20.3925C134.512 15.3289 132.478 12.7971 128.594 12.7971ZM129.55 34.985C125.817 34.985 122.979 33.9569 121.037 31.9008C119.094 29.8139 118.123 26.699 118.123 22.5561C118.123 18.2904 119.049 15.1602 120.9 13.1654C122.782 11.1399 125.346 10.1272 128.594 10.1272C134.572 10.1272 137.744 13.7024 138.108 20.8529C138.139 21.5894 137.881 22.2185 137.334 22.7402C136.818 23.2312 136.196 23.4768 135.468 23.4768H121.993C121.75 23.4768 121.628 23.6148 121.628 23.891C121.902 29.5071 124.648 32.3151 129.868 32.3151C131.598 32.3151 133.374 31.9928 135.195 31.3484C135.528 31.2256 135.847 31.2716 136.151 31.4865C136.454 31.6706 136.606 31.9468 136.606 32.3151C136.606 33.3585 136.135 34.0029 135.195 34.2484C133.252 34.7395 131.371 34.985 129.55 34.985Z" fill="#F46918"/>
<path d="M146.549 34.0183C146.215 34.3558 145.805 34.5246 145.32 34.5246C144.834 34.5246 144.425 34.3558 144.091 34.0183C143.757 33.6807 143.59 33.2664 143.59 32.7754V12.2447C143.59 11.7844 143.742 11.4008 144.045 11.0939C144.379 10.7563 144.774 10.5876 145.229 10.5876C145.684 10.5876 146.079 10.7563 146.412 11.0939C146.746 11.4008 146.913 11.7844 146.913 12.2447V14.1321C146.913 14.1628 146.928 14.1781 146.959 14.1781C146.989 14.1781 147.019 14.1628 147.05 14.1321C149.235 11.4622 151.83 10.1272 154.834 10.1272C157.596 10.1272 159.599 10.9098 160.844 12.4749C162.088 14.04 162.71 16.6332 162.71 20.2545V32.7754C162.71 33.2664 162.543 33.6807 162.209 34.0183C161.906 34.3558 161.511 34.5246 161.026 34.5246C160.54 34.5246 160.13 34.3558 159.797 34.0183C159.463 33.6807 159.296 33.2664 159.296 32.7754V20.7148C159.296 17.6766 158.886 15.6205 158.067 14.5464C157.247 13.4416 155.866 12.8892 153.924 12.8892C152.346 12.8892 150.813 13.6411 149.326 15.1448C147.839 16.6179 147.095 18.1369 147.095 19.7021V32.7754C147.095 33.2664 146.913 33.6807 146.549 34.0183Z" fill="#F46918"/>
<path d="M168.669 14.2702C168.275 14.2702 167.941 14.1474 167.668 13.9019C167.425 13.6257 167.303 13.2881 167.303 12.8892C167.303 12.4902 167.425 12.168 167.668 11.9225C167.941 11.6463 168.275 11.5082 168.669 11.5082H171.992C172.266 11.5082 172.402 11.3701 172.402 11.0939V4.51122C172.402 4.0202 172.569 3.60591 172.903 3.26833C173.237 2.93076 173.647 2.76197 174.132 2.76197C174.618 2.76197 175.027 2.93076 175.361 3.26833C175.695 3.60591 175.862 4.0202 175.862 4.51122V11.0939C175.862 11.3701 175.999 11.5082 176.272 11.5082H183.1C183.495 11.5082 183.814 11.6463 184.056 11.9225C184.33 12.168 184.466 12.4902 184.466 12.8892C184.466 13.2881 184.33 13.6257 184.056 13.9019C183.814 14.1474 183.495 14.2702 183.1 14.2702H176.272C175.999 14.2702 175.862 14.4083 175.862 14.6845V26.8371C175.862 29.0467 176.15 30.5044 176.727 31.2103C177.304 31.8854 178.411 32.223 180.05 32.223C181.021 32.223 181.826 32.1463 182.463 31.9928C182.797 31.9314 183.1 32.0082 183.374 32.223C183.677 32.4071 183.829 32.668 183.829 33.0056C183.829 33.4352 183.692 33.8188 183.419 34.1564C183.176 34.4939 182.858 34.6934 182.463 34.7548C181.674 34.9082 180.672 34.985 179.458 34.985C176.788 34.985 174.936 34.4326 173.905 33.3278C172.903 32.1923 172.402 30.1362 172.402 27.1594V14.6845C172.402 14.4083 172.266 14.2702 171.992 14.2702H168.669Z" fill="#F46918"/>
<path d="M16.3817 80.7179L2.29513 41.5481C1.9922 40.7019 2.08308 39.916 2.56778 39.1907C3.11306 38.4049 3.84011 38.012 4.74892 38.012C5.90008 38.012 6.93007 38.3444 7.83888 39.0093C8.74769 39.6743 9.38386 40.5507 9.74739 41.6388L22.6525 80.9899C22.6525 81.0503 22.6828 81.0806 22.7434 81.0806C22.8646 81.0806 22.9251 81.0503 22.9251 80.9899L35.8303 41.4575C36.1332 40.4299 36.7391 39.6138 37.6479 39.0093C38.5567 38.3444 39.5564 38.012 40.647 38.012C41.5558 38.012 42.2525 38.3746 42.7372 39.1C43.2825 39.8254 43.4037 40.6112 43.1008 41.4575L28.9233 80.7179C28.4386 82.0477 27.6207 83.1358 26.4695 83.982C25.3184 84.7678 24.046 85.1608 22.6525 85.1608C21.259 85.1608 19.9564 84.7678 18.7446 83.982C17.5935 83.1358 16.8058 82.0477 16.3817 80.7179Z" fill="#0073D9"/>
<path d="M84.6143 61.5864C84.6143 48.8925 79.7673 42.5455 70.0733 42.5455C60.3793 42.5455 55.5323 48.8925 55.5323 61.5864C55.5323 74.2803 60.3793 80.6272 70.0733 80.6272C79.7673 80.6272 84.6143 74.2803 84.6143 61.5864ZM85.9775 79.6298C82.1605 83.9216 76.8591 86.0675 70.0733 86.0675C63.2875 86.0675 57.9861 83.9216 54.1691 79.6298C50.3521 75.3381 48.4436 69.3236 48.4436 61.5864C48.4436 53.8491 50.3521 47.8346 54.1691 43.5429C57.9861 39.2511 63.2875 37.1053 70.0733 37.1053C76.8591 37.1053 82.1605 39.2511 85.9775 43.5429C89.7945 47.8346 91.703 53.8491 91.703 61.5864C91.703 69.3236 89.7945 75.3381 85.9775 79.6298Z" fill="#0073D9"/>
<path d="M112.63 84.0727L96.7263 41.4575C96.4234 40.6112 96.5142 39.8254 96.9989 39.1C97.5442 38.3746 98.2713 38.012 99.1801 38.012C100.271 38.012 101.24 38.3444 102.088 39.0093C102.997 39.6138 103.633 40.4299 103.997 41.4575L116.447 76.7284C116.447 76.7888 116.478 76.819 116.538 76.819C116.66 76.819 116.72 76.7888 116.72 76.7284L130.443 41.2761C130.807 40.309 131.413 39.5231 132.261 38.9187C133.17 38.3142 134.169 38.012 135.26 38.012C136.108 38.012 136.744 38.3746 137.168 39.1C137.653 39.7649 137.744 40.4903 137.441 41.2761L112.449 101.844C112.025 102.811 111.358 103.597 110.449 104.202C109.601 104.806 108.632 105.108 107.541 105.108C106.693 105.108 106.057 104.746 105.633 104.02C105.209 103.355 105.148 102.63 105.451 101.844L112.63 85.5234C112.812 85.0399 112.812 84.5563 112.63 84.0727Z" fill="#0073D9"/>
<path d="M168.425 60.2263C162.427 60.2263 157.883 61.1935 154.793 63.1278C151.764 65.0621 150.249 67.7822 150.249 71.2881C150.249 74.0082 151.006 76.2146 152.521 77.9071C154.096 79.5392 156.156 80.3552 158.701 80.3552C163.063 80.3552 166.668 78.9045 169.516 76.003C172.424 73.1015 173.878 69.2631 173.878 64.4878V61.0423C173.878 60.4983 173.605 60.2263 173.06 60.2263H168.425ZM157.247 86.0675C153.127 86.0675 149.764 84.7678 147.159 82.1686C144.554 79.5694 143.251 76.1239 143.251 71.8322C143.251 66.815 145.25 62.7953 149.249 59.7729C153.248 56.7506 159.64 55.2394 168.425 55.2394H173.06C173.605 55.2394 173.878 54.9976 173.878 54.514V52.7913C173.878 49.104 173.03 46.535 171.333 45.0843C169.637 43.5731 166.638 42.8175 162.336 42.8175C158.156 42.8175 153.642 43.6033 148.795 45.175C148.068 45.4167 147.401 45.3261 146.795 44.9029C146.19 44.4798 145.887 43.8753 145.887 43.0895C145.887 40.9739 146.886 39.6138 148.886 39.0093C153.369 37.74 157.853 37.1053 162.336 37.1053C169.304 37.1053 174.12 38.3746 176.786 40.9134C179.513 43.4522 180.876 48.016 180.876 54.6047V81.8966C180.876 82.8033 180.543 83.5891 179.876 84.254C179.27 84.8585 178.513 85.1608 177.604 85.1608C176.695 85.1608 175.908 84.8585 175.241 84.254C174.575 83.5891 174.242 82.8033 174.242 81.8966L174.151 77.1817C174.151 77.1213 174.12 77.0911 174.06 77.0911C173.939 77.0911 173.878 77.1515 173.878 77.2724C170.303 83.1358 164.76 86.0675 157.247 86.0675Z" fill="#0073D9"/>
<path d="M211.519 42.5455C202.734 42.5455 198.341 48.6809 198.341 60.9517C198.341 67.0568 199.492 71.7113 201.795 74.915C204.158 78.1187 207.399 79.7205 211.519 79.7205C215.033 79.7205 218.093 78.4209 220.698 75.8217C223.364 73.2224 224.697 70.1094 224.697 66.4826V55.9648C224.697 52.3379 223.364 49.1947 220.698 46.535C218.093 43.8753 215.033 42.5455 211.519 42.5455ZM209.701 85.1608C204.188 85.1608 199.735 83.0451 196.342 78.8138C193.01 74.5221 191.343 68.568 191.343 60.9517C191.343 52.9122 193.01 46.9279 196.342 42.9989C199.735 39.0698 204.188 37.1053 209.701 37.1053C215.821 37.1053 220.819 39.6138 224.697 44.6309C224.757 44.6914 224.818 44.7216 224.879 44.7216C224.939 44.7216 224.97 44.6914 224.97 44.6309L225.06 41.2761C225.06 40.3694 225.363 39.6138 225.969 39.0093C226.636 38.3444 227.423 38.012 228.332 38.012C229.241 38.012 229.998 38.3444 230.604 39.0093C231.271 39.6138 231.604 40.3694 231.604 41.2761V82.4406C231.604 90.601 229.847 96.555 226.333 100.303C222.819 104.111 217.305 106.015 209.792 106.015C206.036 106.015 202.582 105.622 199.432 104.836C197.493 104.353 196.524 103.083 196.524 101.028C196.524 100.303 196.796 99.6983 197.342 99.2147C197.948 98.7916 198.584 98.7009 199.25 98.9427C202.643 100.031 206.157 100.575 209.792 100.575C215.063 100.575 218.85 99.1845 221.152 96.4039C223.515 93.6234 224.697 89.0596 224.697 82.7126V78.2698C224.697 78.2093 224.667 78.1791 224.606 78.1791C224.545 78.1791 224.485 78.2093 224.424 78.2698C220.728 82.8638 215.821 85.1608 209.701 85.1608Z" fill="#0073D9"/>
<path d="M263.001 42.3642C254.579 42.3642 249.975 47.351 249.187 57.3248C249.187 57.8084 249.46 58.0502 250.005 58.0502H274.452C274.937 58.0502 275.179 57.8084 275.179 57.3248C274.816 47.351 270.756 42.3642 263.001 42.3642ZM264.91 86.0675C257.457 86.0675 251.792 84.0425 247.915 79.9925C244.037 75.8821 242.098 69.7467 242.098 61.5864C242.098 53.1842 243.946 47.0186 247.642 43.0895C251.399 39.1 256.518 37.1053 263.001 37.1053C274.937 37.1053 281.268 44.1474 281.995 58.2315C282.056 59.6823 281.541 60.9214 280.45 61.949C279.42 62.9162 278.178 63.3998 276.724 63.3998H249.823C249.339 63.3998 249.096 63.6718 249.096 64.2158C249.642 75.2776 255.125 80.8086 265.546 80.8086C268.999 80.8086 272.544 80.1739 276.179 78.9045C276.845 78.6627 277.482 78.7533 278.087 79.1765C278.693 79.5392 278.996 80.0832 278.996 80.8086C278.996 82.8638 278.057 84.1331 276.179 84.6167C272.301 85.5839 268.545 86.0675 264.91 86.0675Z" fill="#0073D9"/>
</svg>
